<?xml version="1.0" standalone="no"?>
<!DOCTYPE svg PUBLIC "-//W3C//DTD SVG 20010904//EN"
 "http://www.w3.org/TR/2001/REC-SVG-20010904/DTD/svg10.dtd">
<svg version="1.0" xmlns="http://www.w3.org/2000/svg"
 width="700.000000pt" height="700.000000pt" viewBox="0 0 700.000000 700.000000"
 preserveAspectRatio="xMidYMid meet">
<metadata>
Created by potrace 1.11, written by Peter Selinger 2001-2013
</metadata>
<g transform="translate(0.000000,700.000000) scale(0.100000,-0.100000)"
fill="#000000" stroke="none">
<path d="M2207 6563 c-1 -1 -24 -3 -52 -4 -274 -16 -464 -293 -384 -560 32
-108 113 -205 217 -262 50 -27 77 -35 153 -46 l47 -6 0 -654 0 -655 -655
-1525 -656 -1526 -1 -290 c-1 -183 2 -308 9 -340 27 -120 116 -213 235 -245
35 -10 564 -13 2370 -12 1279 0 2343 2 2364 6 102 17 190 85 238 184 l32 67 1
308 1 308 -123 287 c-68 158 -127 296 -132 307 -6 11 -56 128 -112 260 -56
132 -112 263 -125 292 -13 28 -24 54 -24 57 0 3 -11 29 -24 58 -13 29 -70 161
-126 293 -56 132 -113 264 -126 293 -13 29 -24 55 -24 57 0 2 -11 28 -24 57
-14 29 -44 98 -67 153 -23 55 -52 123 -65 152 -13 28 -24 54 -24 57 0 3 -11
29 -24 58 -13 29 -56 130 -96 223 -40 94 -81 188 -91 210 -9 22 -38 87 -62
145 l-44 105 -1 658 0 657 37 0 c50 0 143 33 203 71 157 101 232 303 180 484
-42 146 -172 272 -319 306 -34 8 -427 12 -1376 13 -731 0 -1329 0 -1330 -1z
m1730 -1531 l1 -657 162 -380 c89 -209 170 -398 180 -420 63 -141 400 -934
400 -941 0 -5 -525 -9 -1184 -9 -651 0 -1183 2 -1181 5 1 3 42 97 90 210 48
113 93 219 101 235 7 17 135 316 285 665 l272 635 0 650 c0 358 1 653 3 656 2
4 199 7 438 7 l433 1 0 -657z"/>
</g>
</svg>
